<mxfile host="app.diagrams.net" modified="2023-03-25T19:34:39.378Z" agent="Mozilla/5.0 (Windows NT 10.0; Win64; x64) AppleWebKit/537.36 (KHTML, like Gecko) Chrome/111.0.0.0 Safari/537.36" etag="S16bT3HrMzZ9N0kPAQn4" version="21.1.0" type="github">
  <diagram id="R2lEEEUBdFMjLlhIrx00" name="Page-1">
    <mxGraphModel dx="1955" dy="586" grid="1" gridSize="10" guides="1" tooltips="1" connect="1" arrows="1" fold="1" page="1" pageScale="1" pageWidth="850" pageHeight="1100" math="0" shadow="0" extFonts="Permanent Marker^https://fonts.googleapis.com/css?family=Permanent+Marker">
      <root>
        <mxCell id="0" />
        <mxCell id="1" parent="0" />
        <mxCell id="jUXAa7-mGyFEjl9MFrAE-49" value="prime_minister" style="shape=table;startSize=30;container=1;collapsible=1;childLayout=tableLayout;fixedRows=1;rowLines=0;fontStyle=1;align=center;resizeLast=1;" parent="1" vertex="1">
          <mxGeometry x="360" y="815" width="250" height="105" as="geometry" />
        </mxCell>
        <mxCell id="jUXAa7-mGyFEjl9MFrAE-50" value="" style="shape=partialRectangle;collapsible=0;dropTarget=0;pointerEvents=0;fillColor=none;points=[[0,0.5],[1,0.5]];portConstraint=eastwest;top=0;left=0;right=0;bottom=1;" parent="jUXAa7-mGyFEjl9MFrAE-49" vertex="1">
          <mxGeometry y="30" width="250" height="30" as="geometry" />
        </mxCell>
        <mxCell id="jUXAa7-mGyFEjl9MFrAE-51" value="PK" style="shape=partialRectangle;overflow=hidden;connectable=0;fillColor=none;top=0;left=0;bottom=0;right=0;fontStyle=1;" parent="jUXAa7-mGyFEjl9MFrAE-50" vertex="1">
          <mxGeometry width="30" height="30" as="geometry">
            <mxRectangle width="30" height="30" as="alternateBounds" />
          </mxGeometry>
        </mxCell>
        <mxCell id="jUXAa7-mGyFEjl9MFrAE-52" value="customer_id int NOT NULL " style="shape=partialRectangle;overflow=hidden;connectable=0;fillColor=none;top=0;left=0;bottom=0;right=0;align=left;spacingLeft=6;fontStyle=5;" parent="jUXAa7-mGyFEjl9MFrAE-50" vertex="1">
          <mxGeometry x="30" width="220" height="30" as="geometry">
            <mxRectangle width="220" height="30" as="alternateBounds" />
          </mxGeometry>
        </mxCell>
        <mxCell id="jUXAa7-mGyFEjl9MFrAE-54" value="coalition" style="shape=table;startSize=30;container=1;collapsible=1;childLayout=tableLayout;fixedRows=1;rowLines=0;fontStyle=1;align=center;resizeLast=1;" parent="1" vertex="1">
          <mxGeometry x="36.5" y="790" width="250" height="130" as="geometry" />
        </mxCell>
        <mxCell id="jUXAa7-mGyFEjl9MFrAE-55" value="" style="shape=partialRectangle;collapsible=0;dropTarget=0;pointerEvents=0;fillColor=none;points=[[0,0.5],[1,0.5]];portConstraint=eastwest;top=0;left=0;right=0;bottom=1;" parent="jUXAa7-mGyFEjl9MFrAE-54" vertex="1">
          <mxGeometry y="30" width="250" height="30" as="geometry" />
        </mxCell>
        <mxCell id="jUXAa7-mGyFEjl9MFrAE-56" value="PK" style="shape=partialRectangle;overflow=hidden;connectable=0;fillColor=none;top=0;left=0;bottom=0;right=0;fontStyle=1;" parent="jUXAa7-mGyFEjl9MFrAE-55" vertex="1">
          <mxGeometry width="30" height="30" as="geometry">
            <mxRectangle width="30" height="30" as="alternateBounds" />
          </mxGeometry>
        </mxCell>
        <mxCell id="jUXAa7-mGyFEjl9MFrAE-57" value="shipment_idÂ int NOT NULL " style="shape=partialRectangle;overflow=hidden;connectable=0;fillColor=none;top=0;left=0;bottom=0;right=0;align=left;spacingLeft=6;fontStyle=5;" parent="jUXAa7-mGyFEjl9MFrAE-55" vertex="1">
          <mxGeometry x="30" width="220" height="30" as="geometry">
            <mxRectangle width="220" height="30" as="alternateBounds" />
          </mxGeometry>
        </mxCell>
        <mxCell id="jUXAa7-mGyFEjl9MFrAE-58" value="" style="shape=partialRectangle;collapsible=0;dropTarget=0;pointerEvents=0;fillColor=none;points=[[0,0.5],[1,0.5]];portConstraint=eastwest;top=0;left=0;right=0;bottom=0;" parent="jUXAa7-mGyFEjl9MFrAE-54" vertex="1">
          <mxGeometry y="60" width="250" height="30" as="geometry" />
        </mxCell>
        <mxCell id="jUXAa7-mGyFEjl9MFrAE-59" value="FK1" style="shape=partialRectangle;overflow=hidden;connectable=0;fillColor=none;top=0;left=0;bottom=0;right=0;" parent="jUXAa7-mGyFEjl9MFrAE-58" vertex="1">
          <mxGeometry width="30" height="30" as="geometry">
            <mxRectangle width="30" height="30" as="alternateBounds" />
          </mxGeometry>
        </mxCell>
        <mxCell id="jUXAa7-mGyFEjl9MFrAE-60" value="order_id int NOT NULL" style="shape=partialRectangle;overflow=hidden;connectable=0;fillColor=none;top=0;left=0;bottom=0;right=0;align=left;spacingLeft=6;" parent="jUXAa7-mGyFEjl9MFrAE-58" vertex="1">
          <mxGeometry x="30" width="220" height="30" as="geometry">
            <mxRectangle width="220" height="30" as="alternateBounds" />
          </mxGeometry>
        </mxCell>
        <mxCell id="jUXAa7-mGyFEjl9MFrAE-61" value="" style="shape=partialRectangle;collapsible=0;dropTarget=0;pointerEvents=0;fillColor=none;points=[[0,0.5],[1,0.5]];portConstraint=eastwest;top=0;left=0;right=0;bottom=0;" parent="jUXAa7-mGyFEjl9MFrAE-54" vertex="1">
          <mxGeometry y="90" width="250" height="30" as="geometry" />
        </mxCell>
        <mxCell id="jUXAa7-mGyFEjl9MFrAE-62" value="" style="shape=partialRectangle;overflow=hidden;connectable=0;fillColor=none;top=0;left=0;bottom=0;right=0;" parent="jUXAa7-mGyFEjl9MFrAE-61" vertex="1">
          <mxGeometry width="30" height="30" as="geometry">
            <mxRectangle width="30" height="30" as="alternateBounds" />
          </mxGeometry>
        </mxCell>
        <mxCell id="jUXAa7-mGyFEjl9MFrAE-63" value="shipment_date date NOT NULL" style="shape=partialRectangle;overflow=hidden;connectable=0;fillColor=none;top=0;left=0;bottom=0;right=0;align=left;spacingLeft=6;" parent="jUXAa7-mGyFEjl9MFrAE-61" vertex="1">
          <mxGeometry x="30" width="220" height="30" as="geometry">
            <mxRectangle width="220" height="30" as="alternateBounds" />
          </mxGeometry>
        </mxCell>
        <mxCell id="jUXAa7-mGyFEjl9MFrAE-71" value="belong to" style="shape=rhombus;double=1;perimeter=rhombusPerimeter;whiteSpace=wrap;html=1;align=center;" parent="1" vertex="1">
          <mxGeometry x="216.5" y="260" width="120" height="60" as="geometry" />
        </mxCell>
        <mxCell id="jUXAa7-mGyFEjl9MFrAE-81" value="" style="endArrow=none;html=1;rounded=0;exitX=0;exitY=0.5;exitDx=0;exitDy=0;entryX=1;entryY=0.5;entryDx=0;entryDy=0;" parent="1" source="jUXAa7-mGyFEjl9MFrAE-71" target="jUXAa7-mGyFEjl9MFrAE-133" edge="1">
          <mxGeometry relative="1" as="geometry">
            <mxPoint x="516.5" y="470" as="sourcePoint" />
            <mxPoint x="86.5" y="289.9999999999998" as="targetPoint" />
          </mxGeometry>
        </mxCell>
        <mxCell id="jUXAa7-mGyFEjl9MFrAE-82" value="N" style="resizable=0;html=1;whiteSpace=wrap;align=right;verticalAlign=bottom;" parent="jUXAa7-mGyFEjl9MFrAE-81" connectable="0" vertex="1">
          <mxGeometry x="1" relative="1" as="geometry">
            <mxPoint x="13" as="offset" />
          </mxGeometry>
        </mxCell>
        <mxCell id="jUXAa7-mGyFEjl9MFrAE-83" value="" style="endArrow=none;html=1;rounded=0;exitX=0;exitY=0.5;exitDx=0;exitDy=0;entryX=1;entryY=0.5;entryDx=0;entryDy=0;" parent="1" source="jUXAa7-mGyFEjl9MFrAE-132" target="jUXAa7-mGyFEjl9MFrAE-71" edge="1">
          <mxGeometry relative="1" as="geometry">
            <mxPoint x="432.5" y="290.21000000000004" as="sourcePoint" />
            <mxPoint x="676.5" y="470" as="targetPoint" />
          </mxGeometry>
        </mxCell>
        <mxCell id="jUXAa7-mGyFEjl9MFrAE-84" value="M" style="resizable=0;html=1;whiteSpace=wrap;align=left;verticalAlign=bottom;" parent="jUXAa7-mGyFEjl9MFrAE-83" connectable="0" vertex="1">
          <mxGeometry x="-1" relative="1" as="geometry">
            <mxPoint x="-18" as="offset" />
          </mxGeometry>
        </mxCell>
        <mxCell id="jUXAa7-mGyFEjl9MFrAE-85" value="" style="resizable=0;html=1;whiteSpace=wrap;align=right;verticalAlign=bottom;" parent="jUXAa7-mGyFEjl9MFrAE-83" connectable="0" vertex="1">
          <mxGeometry x="1" relative="1" as="geometry" />
        </mxCell>
        <mxCell id="jUXAa7-mGyFEjl9MFrAE-86" value="" style="endArrow=none;html=1;rounded=0;exitX=0;exitY=0.5;exitDx=0;exitDy=0;entryX=0.931;entryY=1.015;entryDx=0;entryDy=0;entryPerimeter=0;" parent="1" source="jUXAa7-mGyFEjl9MFrAE-88" target="jUXAa7-mGyFEjl9MFrAE-133" edge="1">
          <mxGeometry relative="1" as="geometry">
            <mxPoint x="513.5" y="650" as="sourcePoint" />
            <mxPoint x="66.5" y="350" as="targetPoint" />
            <Array as="points">
              <mxPoint x="34" y="520" />
            </Array>
          </mxGeometry>
        </mxCell>
        <mxCell id="jUXAa7-mGyFEjl9MFrAE-87" value="N" style="resizable=0;html=1;whiteSpace=wrap;align=right;verticalAlign=bottom;" parent="jUXAa7-mGyFEjl9MFrAE-86" connectable="0" vertex="1">
          <mxGeometry x="1" relative="1" as="geometry">
            <mxPoint x="15" y="24" as="offset" />
          </mxGeometry>
        </mxCell>
        <mxCell id="jUXAa7-mGyFEjl9MFrAE-88" value="is" style="shape=rhombus;double=1;perimeter=rhombusPerimeter;whiteSpace=wrap;html=1;align=center;" parent="1" vertex="1">
          <mxGeometry x="216.5" y="490" width="120" height="60" as="geometry" />
        </mxCell>
        <mxCell id="jUXAa7-mGyFEjl9MFrAE-89" value="" style="endArrow=none;html=1;rounded=0;entryX=1;entryY=0.5;entryDx=0;entryDy=0;" parent="1" target="jUXAa7-mGyFEjl9MFrAE-88" edge="1">
          <mxGeometry relative="1" as="geometry">
            <mxPoint x="496.5" y="520" as="sourcePoint" />
            <mxPoint x="676.5" y="700" as="targetPoint" />
          </mxGeometry>
        </mxCell>
        <mxCell id="jUXAa7-mGyFEjl9MFrAE-90" value="M" style="resizable=0;html=1;whiteSpace=wrap;align=left;verticalAlign=bottom;" parent="jUXAa7-mGyFEjl9MFrAE-89" connectable="0" vertex="1">
          <mxGeometry x="-1" relative="1" as="geometry">
            <mxPoint x="-25" as="offset" />
          </mxGeometry>
        </mxCell>
        <mxCell id="jUXAa7-mGyFEjl9MFrAE-91" value="" style="resizable=0;html=1;whiteSpace=wrap;align=right;verticalAlign=bottom;" parent="jUXAa7-mGyFEjl9MFrAE-89" connectable="0" vertex="1">
          <mxGeometry x="1" relative="1" as="geometry" />
        </mxCell>
        <mxCell id="jUXAa7-mGyFEjl9MFrAE-92" value="has" style="shape=rhombus;double=1;perimeter=rhombusPerimeter;whiteSpace=wrap;html=1;align=center;" parent="1" vertex="1">
          <mxGeometry x="511.5" y="370" width="120" height="60" as="geometry" />
        </mxCell>
        <mxCell id="jUXAa7-mGyFEjl9MFrAE-93" value="" style="endArrow=none;html=1;rounded=0;exitX=0.5;exitY=0;exitDx=0;exitDy=0;entryX=0.448;entryY=1.02;entryDx=0;entryDy=0;entryPerimeter=0;" parent="1" target="jUXAa7-mGyFEjl9MFrAE-132" edge="1">
          <mxGeometry relative="1" as="geometry">
            <mxPoint x="571.5" y="370" as="sourcePoint" />
            <mxPoint x="575.5625" y="320" as="targetPoint" />
          </mxGeometry>
        </mxCell>
        <mxCell id="jUXAa7-mGyFEjl9MFrAE-94" value="1" style="resizable=0;html=1;whiteSpace=wrap;align=right;verticalAlign=bottom;" parent="jUXAa7-mGyFEjl9MFrAE-93" connectable="0" vertex="1">
          <mxGeometry x="1" relative="1" as="geometry">
            <mxPoint x="-2" y="15" as="offset" />
          </mxGeometry>
        </mxCell>
        <mxCell id="jUXAa7-mGyFEjl9MFrAE-97" value="" style="endArrow=none;html=1;rounded=0;exitX=0.5;exitY=1;exitDx=0;exitDy=0;entryX=0.546;entryY=0.016;entryDx=0;entryDy=0;entryPerimeter=0;" parent="1" source="jUXAa7-mGyFEjl9MFrAE-92" target="jUXAa7-mGyFEjl9MFrAE-131" edge="1">
          <mxGeometry relative="1" as="geometry">
            <mxPoint x="446.5" y="350" as="sourcePoint" />
            <mxPoint x="571.5" y="460" as="targetPoint" />
          </mxGeometry>
        </mxCell>
        <mxCell id="jUXAa7-mGyFEjl9MFrAE-98" value="N" style="resizable=0;html=1;whiteSpace=wrap;align=right;verticalAlign=bottom;" parent="jUXAa7-mGyFEjl9MFrAE-97" connectable="0" vertex="1">
          <mxGeometry x="1" relative="1" as="geometry" />
        </mxCell>
        <mxCell id="jUXAa7-mGyFEjl9MFrAE-99" value="has" style="shape=rhombus;double=1;perimeter=rhombusPerimeter;whiteSpace=wrap;html=1;align=center;" parent="1" vertex="1">
          <mxGeometry x="796.5" y="260" width="120" height="60" as="geometry" />
        </mxCell>
        <mxCell id="jUXAa7-mGyFEjl9MFrAE-100" value="" style="endArrow=none;html=1;rounded=0;" parent="1" source="jUXAa7-mGyFEjl9MFrAE-99" edge="1">
          <mxGeometry relative="1" as="geometry">
            <mxPoint x="386.5" y="530" as="sourcePoint" />
            <mxPoint x="646.5" y="290" as="targetPoint" />
          </mxGeometry>
        </mxCell>
        <mxCell id="jUXAa7-mGyFEjl9MFrAE-101" value="N" style="resizable=0;html=1;whiteSpace=wrap;align=right;verticalAlign=bottom;" parent="jUXAa7-mGyFEjl9MFrAE-100" connectable="0" vertex="1">
          <mxGeometry x="1" relative="1" as="geometry">
            <mxPoint x="10" as="offset" />
          </mxGeometry>
        </mxCell>
        <mxCell id="jUXAa7-mGyFEjl9MFrAE-102" value="" style="endArrow=none;html=1;rounded=0;entryX=0;entryY=0.75;entryDx=0;entryDy=0;" parent="1" target="jUXAa7-mGyFEjl9MFrAE-130" edge="1">
          <mxGeometry relative="1" as="geometry">
            <mxPoint x="916.5" y="289" as="sourcePoint" />
            <mxPoint x="1003.75" y="289.81999999999994" as="targetPoint" />
          </mxGeometry>
        </mxCell>
        <mxCell id="jUXAa7-mGyFEjl9MFrAE-103" value="M" style="resizable=0;html=1;whiteSpace=wrap;align=right;verticalAlign=bottom;" parent="jUXAa7-mGyFEjl9MFrAE-102" connectable="0" vertex="1">
          <mxGeometry x="1" relative="1" as="geometry">
            <mxPoint x="-10" as="offset" />
          </mxGeometry>
        </mxCell>
        <mxCell id="jUXAa7-mGyFEjl9MFrAE-110" value="has" style="shape=rhombus;double=1;perimeter=rhombusPerimeter;whiteSpace=wrap;html=1;align=center;" parent="1" vertex="1">
          <mxGeometry x="-403.5" y="260" width="120" height="60" as="geometry" />
        </mxCell>
        <mxCell id="jUXAa7-mGyFEjl9MFrAE-111" value="" style="endArrow=none;html=1;rounded=0;entryX=0;entryY=0.5;entryDx=0;entryDy=0;" parent="1" target="jUXAa7-mGyFEjl9MFrAE-133" edge="1">
          <mxGeometry relative="1" as="geometry">
            <mxPoint x="-283.5" y="290" as="sourcePoint" />
            <mxPoint x="-163.5" y="289.9999999999998" as="targetPoint" />
          </mxGeometry>
        </mxCell>
        <mxCell id="jUXAa7-mGyFEjl9MFrAE-112" value="M" style="resizable=0;html=1;whiteSpace=wrap;align=right;verticalAlign=bottom;" parent="jUXAa7-mGyFEjl9MFrAE-111" connectable="0" vertex="1">
          <mxGeometry x="1" relative="1" as="geometry">
            <mxPoint x="-10" as="offset" />
          </mxGeometry>
        </mxCell>
        <mxCell id="jUXAa7-mGyFEjl9MFrAE-113" value="" style="endArrow=none;html=1;rounded=0;entryX=0.395;entryY=-0.013;entryDx=0;entryDy=0;exitX=0.5;exitY=1;exitDx=0;exitDy=0;entryPerimeter=0;" parent="1" source="jUXAa7-mGyFEjl9MFrAE-110" edge="1">
          <mxGeometry relative="1" as="geometry">
            <mxPoint x="-343.5" y="300" as="sourcePoint" />
            <mxPoint x="-344.75" y="488.30999999999995" as="targetPoint" />
          </mxGeometry>
        </mxCell>
        <mxCell id="jUXAa7-mGyFEjl9MFrAE-114" value="M" style="resizable=0;html=1;whiteSpace=wrap;align=right;verticalAlign=bottom;" parent="jUXAa7-mGyFEjl9MFrAE-113" connectable="0" vertex="1">
          <mxGeometry x="1" relative="1" as="geometry">
            <mxPoint x="-10" y="-9" as="offset" />
          </mxGeometry>
        </mxCell>
        <mxCell id="jUXAa7-mGyFEjl9MFrAE-115" value="belong to" style="shape=rhombus;double=1;perimeter=rhombusPerimeter;whiteSpace=wrap;html=1;align=center;" parent="1" vertex="1">
          <mxGeometry x="-150" y="490" width="120" height="60" as="geometry" />
        </mxCell>
        <mxCell id="jUXAa7-mGyFEjl9MFrAE-117" value="" style="endArrow=none;html=1;rounded=0;exitX=0.5;exitY=1;exitDx=0;exitDy=0;entryX=0.5;entryY=0;entryDx=0;entryDy=0;" parent="1" source="jUXAa7-mGyFEjl9MFrAE-115" target="jUXAa7-mGyFEjl9MFrAE-134" edge="1">
          <mxGeometry relative="1" as="geometry">
            <mxPoint x="-93.5" y="630" as="sourcePoint" />
            <mxPoint x="-55.5" y="690" as="targetPoint" />
          </mxGeometry>
        </mxCell>
        <mxCell id="jUXAa7-mGyFEjl9MFrAE-118" value="1" style="resizable=0;html=1;whiteSpace=wrap;align=right;verticalAlign=bottom;" parent="jUXAa7-mGyFEjl9MFrAE-117" connectable="0" vertex="1">
          <mxGeometry x="1" relative="1" as="geometry">
            <mxPoint x="-8" y="-6" as="offset" />
          </mxGeometry>
        </mxCell>
        <mxCell id="jUXAa7-mGyFEjl9MFrAE-119" value="" style="endArrow=none;html=1;rounded=0;exitX=0.5;exitY=0;exitDx=0;exitDy=0;" parent="1" source="jUXAa7-mGyFEjl9MFrAE-115" edge="1">
          <mxGeometry relative="1" as="geometry">
            <mxPoint x="-333.5" y="330" as="sourcePoint" />
            <mxPoint x="-90" y="320" as="targetPoint" />
          </mxGeometry>
        </mxCell>
        <mxCell id="jUXAa7-mGyFEjl9MFrAE-120" value="M" style="resizable=0;html=1;whiteSpace=wrap;align=right;verticalAlign=bottom;" parent="jUXAa7-mGyFEjl9MFrAE-119" connectable="0" vertex="1">
          <mxGeometry x="1" relative="1" as="geometry">
            <mxPoint x="-8" y="29" as="offset" />
          </mxGeometry>
        </mxCell>
        <mxCell id="jUXAa7-mGyFEjl9MFrAE-124" value="" style="endArrow=none;html=1;rounded=0;entryX=1;entryY=0.5;entryDx=0;entryDy=0;" parent="1" source="jUXAa7-mGyFEjl9MFrAE-126" target="jUXAa7-mGyFEjl9MFrAE-131" edge="1">
          <mxGeometry relative="1" as="geometry">
            <mxPoint x="382.5" y="760" as="sourcePoint" />
            <mxPoint x="684.5" y="522" as="targetPoint" />
          </mxGeometry>
        </mxCell>
        <mxCell id="jUXAa7-mGyFEjl9MFrAE-125" value="N" style="resizable=0;html=1;whiteSpace=wrap;align=right;verticalAlign=bottom;" parent="jUXAa7-mGyFEjl9MFrAE-124" connectable="0" vertex="1">
          <mxGeometry x="1" relative="1" as="geometry">
            <mxPoint x="22" y="-2" as="offset" />
          </mxGeometry>
        </mxCell>
        <mxCell id="jUXAa7-mGyFEjl9MFrAE-126" value="has" style="shape=rhombus;double=1;perimeter=rhombusPerimeter;whiteSpace=wrap;html=1;align=center;" parent="1" vertex="1">
          <mxGeometry x="792.5" y="490" width="120" height="60" as="geometry" />
        </mxCell>
        <mxCell id="jUXAa7-mGyFEjl9MFrAE-127" value="" style="endArrow=none;html=1;rounded=0;entryX=0.5;entryY=1;entryDx=0;entryDy=0;" parent="1" target="jUXAa7-mGyFEjl9MFrAE-130" edge="1">
          <mxGeometry relative="1" as="geometry">
            <mxPoint x="912.5" y="519" as="sourcePoint" />
            <mxPoint x="1086.5" y="330" as="targetPoint" />
            <Array as="points">
              <mxPoint x="1086.5" y="520" />
            </Array>
          </mxGeometry>
        </mxCell>
        <mxCell id="jUXAa7-mGyFEjl9MFrAE-128" value="M" style="resizable=0;html=1;whiteSpace=wrap;align=right;verticalAlign=bottom;" parent="jUXAa7-mGyFEjl9MFrAE-127" connectable="0" vertex="1">
          <mxGeometry x="1" relative="1" as="geometry">
            <mxPoint x="20" y="30" as="offset" />
          </mxGeometry>
        </mxCell>
        <mxCell id="jUXAa7-mGyFEjl9MFrAE-130" value="meeting" style="whiteSpace=wrap;html=1;align=center;" parent="1" vertex="1">
          <mxGeometry x="1036.5" y="260" width="100" height="40" as="geometry" />
        </mxCell>
        <mxCell id="jUXAa7-mGyFEjl9MFrAE-131" value="chairperson" style="whiteSpace=wrap;html=1;align=center;" parent="1" vertex="1">
          <mxGeometry x="498.5" y="490" width="133" height="60" as="geometry" />
        </mxCell>
        <mxCell id="jUXAa7-mGyFEjl9MFrAE-132" value="Knesset" style="whiteSpace=wrap;html=1;align=center;" parent="1" vertex="1">
          <mxGeometry x="511.5" y="260" width="133" height="60" as="geometry" />
        </mxCell>
        <mxCell id="jUXAa7-mGyFEjl9MFrAE-133" value="Member of Knesset" style="whiteSpace=wrap;html=1;align=center;" parent="1" vertex="1">
          <mxGeometry x="-140" y="260" width="186.5" height="60" as="geometry" />
        </mxCell>
        <mxCell id="jUXAa7-mGyFEjl9MFrAE-134" value="party" style="whiteSpace=wrap;html=1;align=center;" parent="1" vertex="1">
          <mxGeometry x="-156.5" y="690" width="133" height="60" as="geometry" />
        </mxCell>
        <mxCell id="jUXAa7-mGyFEjl9MFrAE-135" value="Government" style="whiteSpace=wrap;html=1;align=center;" parent="1" vertex="1">
          <mxGeometry x="336.5" y="690" width="133" height="60" as="geometry" />
        </mxCell>
        <mxCell id="jUXAa7-mGyFEjl9MFrAE-139" value="has" style="shape=rhombus;double=1;perimeter=rhombusPerimeter;whiteSpace=wrap;html=1;align=center;" parent="1" vertex="1">
          <mxGeometry x="116.5" y="690" width="120" height="60" as="geometry" />
        </mxCell>
        <mxCell id="jUXAa7-mGyFEjl9MFrAE-140" value="" style="endArrow=none;html=1;rounded=0;entryX=1;entryY=0.5;entryDx=0;entryDy=0;exitX=0;exitY=0.5;exitDx=0;exitDy=0;" parent="1" source="jUXAa7-mGyFEjl9MFrAE-139" target="jUXAa7-mGyFEjl9MFrAE-134" edge="1">
          <mxGeometry relative="1" as="geometry">
            <mxPoint x="106.5" y="760" as="sourcePoint" />
            <mxPoint x="266.5" y="760" as="targetPoint" />
          </mxGeometry>
        </mxCell>
        <mxCell id="jUXAa7-mGyFEjl9MFrAE-141" value="N" style="resizable=0;html=1;whiteSpace=wrap;align=right;verticalAlign=bottom;" parent="jUXAa7-mGyFEjl9MFrAE-140" connectable="0" vertex="1">
          <mxGeometry x="1" relative="1" as="geometry">
            <mxPoint x="24" y="20" as="offset" />
          </mxGeometry>
        </mxCell>
        <mxCell id="jUXAa7-mGyFEjl9MFrAE-142" value="" style="endArrow=none;html=1;rounded=0;entryX=0;entryY=0.5;entryDx=0;entryDy=0;exitX=1;exitY=0.5;exitDx=0;exitDy=0;" parent="1" source="jUXAa7-mGyFEjl9MFrAE-139" target="jUXAa7-mGyFEjl9MFrAE-135" edge="1">
          <mxGeometry relative="1" as="geometry">
            <mxPoint x="106.5" y="760" as="sourcePoint" />
            <mxPoint x="266.5" y="760" as="targetPoint" />
          </mxGeometry>
        </mxCell>
        <mxCell id="jUXAa7-mGyFEjl9MFrAE-143" value="M" style="resizable=0;html=1;whiteSpace=wrap;align=right;verticalAlign=bottom;" parent="jUXAa7-mGyFEjl9MFrAE-142" connectable="0" vertex="1">
          <mxGeometry x="1" relative="1" as="geometry">
            <mxPoint x="-10" y="20" as="offset" />
          </mxGeometry>
        </mxCell>
        <mxCell id="jUXAa7-mGyFEjl9MFrAE-144" value="" style="endArrow=none;html=1;rounded=0;entryX=0.75;entryY=0;entryDx=0;entryDy=0;exitX=0;exitY=0.5;exitDx=0;exitDy=0;" parent="1" source="jUXAa7-mGyFEjl9MFrAE-146" target="jUXAa7-mGyFEjl9MFrAE-134" edge="1">
          <mxGeometry relative="1" as="geometry">
            <mxPoint x="149.5" y="650" as="sourcePoint" />
            <mxPoint x="46.5" y="650" as="targetPoint" />
            <Array as="points">
              <mxPoint x="-57" y="630" />
            </Array>
          </mxGeometry>
        </mxCell>
        <mxCell id="jUXAa7-mGyFEjl9MFrAE-145" value="N" style="resizable=0;html=1;whiteSpace=wrap;align=right;verticalAlign=bottom;" parent="jUXAa7-mGyFEjl9MFrAE-144" connectable="0" vertex="1">
          <mxGeometry x="1" relative="1" as="geometry">
            <mxPoint x="-3" y="-6" as="offset" />
          </mxGeometry>
        </mxCell>
        <mxCell id="jUXAa7-mGyFEjl9MFrAE-146" value="has" style="shape=rhombus;double=1;perimeter=rhombusPerimeter;whiteSpace=wrap;html=1;align=center;" parent="1" vertex="1">
          <mxGeometry x="286.5" y="600" width="120" height="60" as="geometry" />
        </mxCell>
        <mxCell id="jUXAa7-mGyFEjl9MFrAE-147" value="" style="endArrow=none;html=1;rounded=0;entryX=0.5;entryY=1;entryDx=0;entryDy=0;" parent="1" target="jUXAa7-mGyFEjl9MFrAE-131" edge="1">
          <mxGeometry relative="1" as="geometry">
            <mxPoint x="406.5" y="629.41" as="sourcePoint" />
            <mxPoint x="566.5" y="629.41" as="targetPoint" />
            <Array as="points">
              <mxPoint x="565.5" y="629" />
            </Array>
          </mxGeometry>
        </mxCell>
        <mxCell id="jUXAa7-mGyFEjl9MFrAE-148" value="1" style="resizable=0;html=1;whiteSpace=wrap;align=right;verticalAlign=bottom;" parent="jUXAa7-mGyFEjl9MFrAE-147" connectable="0" vertex="1">
          <mxGeometry x="1" relative="1" as="geometry">
            <mxPoint x="13" y="20" as="offset" />
          </mxGeometry>
        </mxCell>
        <mxCell id="jUXAa7-mGyFEjl9MFrAE-149" value="committees" style="whiteSpace=wrap;html=1;align=center;" parent="1" vertex="1">
          <mxGeometry x="-410" y="490" width="133" height="60" as="geometry" />
        </mxCell>
        <mxCell id="jUXAa7-mGyFEjl9MFrAE-150" value="attending to" style="shape=rhombus;double=1;perimeter=rhombusPerimeter;whiteSpace=wrap;html=1;align=center;" parent="1" vertex="1">
          <mxGeometry x="518" y="140" width="120" height="60" as="geometry" />
        </mxCell>
        <mxCell id="jUXAa7-mGyFEjl9MFrAE-151" value="" style="endArrow=none;html=1;rounded=0;exitX=0;exitY=0.5;exitDx=0;exitDy=0;entryX=0.75;entryY=0;entryDx=0;entryDy=0;" parent="1" source="jUXAa7-mGyFEjl9MFrAE-150" target="jUXAa7-mGyFEjl9MFrAE-133" edge="1">
          <mxGeometry relative="1" as="geometry">
            <mxPoint x="486.5" y="160" as="sourcePoint" />
            <mxPoint x="-13.5" y="170" as="targetPoint" />
            <Array as="points">
              <mxPoint y="170" />
            </Array>
          </mxGeometry>
        </mxCell>
        <mxCell id="jUXAa7-mGyFEjl9MFrAE-152" value="N" style="resizable=0;html=1;whiteSpace=wrap;align=right;verticalAlign=bottom;" parent="jUXAa7-mGyFEjl9MFrAE-151" connectable="0" vertex="1">
          <mxGeometry x="1" relative="1" as="geometry">
            <mxPoint x="15" as="offset" />
          </mxGeometry>
        </mxCell>
        <mxCell id="jUXAa7-mGyFEjl9MFrAE-153" value="" style="endArrow=none;html=1;rounded=0;entryX=0.5;entryY=0;entryDx=0;entryDy=0;exitX=1;exitY=0.5;exitDx=0;exitDy=0;" parent="1" source="jUXAa7-mGyFEjl9MFrAE-150" target="jUXAa7-mGyFEjl9MFrAE-130" edge="1">
          <mxGeometry relative="1" as="geometry">
            <mxPoint x="726.5" y="169.5" as="sourcePoint" />
            <mxPoint x="846.5" y="170.5" as="targetPoint" />
            <Array as="points">
              <mxPoint x="1086.5" y="170" />
            </Array>
          </mxGeometry>
        </mxCell>
        <mxCell id="jUXAa7-mGyFEjl9MFrAE-154" value="M" style="resizable=0;html=1;whiteSpace=wrap;align=right;verticalAlign=bottom;" parent="jUXAa7-mGyFEjl9MFrAE-153" connectable="0" vertex="1">
          <mxGeometry x="1" relative="1" as="geometry">
            <mxPoint x="-6" y="-3" as="offset" />
          </mxGeometry>
        </mxCell>
        <mxCell id="jUXAa7-mGyFEjl9MFrAE-155" value="role??" style="whiteSpace=wrap;html=1;align=center;" parent="1" vertex="1">
          <mxGeometry x="-403.5" y="610" width="133" height="60" as="geometry" />
        </mxCell>
      </root>
    </mxGraphModel>
  </diagram>
</mxfile>
